<svg width="52" height="52" viewBox="0 0 52 52" fill="none" xmlns="http://www.w3.org/2000/svg">
<path fill-rule="evenodd" clip-rule="evenodd" d="M30 14H28V24.6141L30 22.3685V14ZM31.5782 22.2174L20.5019 34.9978L20.5 35H20.5211C19.0853 36.3011 17.1409 37.1 15 37.1C10.5817 37.1 7 33.6974 7 29.5C7 25.3026 10.5817 21.9 15 21.9C19.4183 21.9 23 25.3026 23 29.5C23 29.7614 22.9861 30.0197 22.959 30.2743L25 27.9826V14H23V23.7991C21.1755 21.4922 18.2712 20 15 20C9.47715 20 5 24.2533 5 29.5C5 34.7467 9.47715 39 15 39C17.5299 39 19.8403 38.1075 21.6015 36.6359L25 32.6956V32.6842L28 29.2105V29.2174L31.1668 25.5457C31.1685 25.5431 31.1701 25.5405 31.1718 25.5379L32.4686 24.0364L32.5 24V24L32.5 24L32.5 24L32.4789 24C33.9147 22.6989 35.8591 21.9 38 21.9C42.4183 21.9 46 25.3026 46 29.5C46 33.6974 42.4183 37.1 38 37.1C33.5817 37.1 30 33.6974 30 29.5C30 28.8918 30.0752 28.3002 30.2173 27.7333L28 30.3883V39H30V35.2009C31.8245 37.5078 34.7288 39 38 39C43.5228 39 48 34.7467 48 29.5C48 24.2533 43.5228 20 38 20C35.5553 20 33.3155 20.8334 31.5782 22.2174ZM25 33.9806L23 36.3754V39H25V33.9806Z" fill="white"/>
</svg>
